# xmcd CD database file generated by OrangeCD 5.2
#
# Track frame offsets:
#	150
#	23195
#	36682
#	65232
#	84714
#	106024
#	125521
#	140831
#	152284
#	172247
#	192157
#	205017
#	222674
#	239979
#	253306
#	269428
#
# Disc length: 3740 seconds
#
# Revision: 0
# Processed by: cddbd v1.5.1PL0 Copyright (c) Steve Scherf et al.
# Submitted via: OrangeCD 5.2
#
DISCID=050e9a10
DTITLE=Various Artist - The Gospel According to Garry
DYEAR=1900
DGENRE=
TTITLE0=Soldier - The Blind Boys Of Alabama
TTITLE1=On The Battlefield - Veteran Singers
TTITLE2=Saved - Nothern Blues Gaspel Allstars
TTITLE3=Still Standing Tall - Northern Blues Gaspel Allstars
TTITLE4=Saving Grace - Aaron Nevelle
TTITLE5=Motherless Child - Blind Boys Of Alabama
TTITLE6=Run On For A Long Time - Blind BOys oOf Alabama
TTITLE7=Will The Circle Be Unbroken - Southern Tornadoes
TTITLE8=Amazing Grace - Blind Boys Of Alabama
TTITLE9=Cain's Blood - Ther Persuasions
TTITLE10=Heaven How Do Yo Do - Spiritularies
TTITLE11=Ther's A Train - Holmes Brothers
TTITLE12=One Thing You Can't Take Away - The Persuasions
TTITLE13=The Last Time - Blind Boys Of Alabama
TTITLE14=Promised Land - The Holmes Brothers
TTITLE15=Higher Ground - Amoy Levy
EXTD=Compilation by Garry Boyer
EXTT0=
EXTT1=
EXTT2=
EXTT3=
EXTT4=
EXTT5=
EXTT6=
EXTT7=
EXTT8=
EXTT9=
EXTT10=
EXTT11=
EXTT12=
EXTT13=
EXTT14=
EXTT15=
PLAYORDER=
